<svg width="70" height="70" viewBox="0 0 70 70" fill="none" xmlns="http://www.w3.org/2000/svg">
<path d="M37.8386 25.2449C34.9219 22.1882 32.6119 18.2449 31.0953 13.7649C29.9286 10.3115 28.2486 3.94153 28.2486 2.9382C28.2486 1.37487 25.4486 0.744865 25.4486 3.7782C25.4486 5.34153 24.4219 14.4182 21.2953 19.8549C18.3319 25.0349 17.1886 26.3651 15.1119 27.2518C13.9219 27.7418 14.1086 28.1149 15.7886 28.6982C19.9419 30.1449 21.8086 33.6215 25.5653 46.8749C27.7586 54.5749 29.1119 54.3415 30.2553 46.0582C31.3753 37.8215 35.5286 28.4649 38.4919 27.4382C39.4719 27.1115 39.4019 26.9015 37.8386 25.2449ZM28.0386 40.1315L27.5953 42.2315C27.4086 41.7415 24.9819 31.4515 20.7119 28.6982C19.5453 27.9515 19.3353 27.6482 20.0119 27.6482C22.1819 27.6482 25.5653 21.8849 26.5919 16.3315C27.0819 13.7882 27.1519 13.6949 27.7586 15.2815C29.0186 18.6649 31.0953 21.8615 33.9419 24.8249L35.8086 26.7851C35.5519 27.0884 30.3019 29.1415 28.0386 40.1315Z" fill="#FF6F40"/>
<path d="M54.6622 52.7315C50.9989 49.7448 48.3155 44.4484 48.3155 40.0851C48.3155 38.1717 45.7722 35.9782 44.8155 41.4148C43.6489 48.1582 42.8789 50.0015 40.2422 52.6382C38.0722 54.7848 38.0489 54.6448 40.7789 55.3915C43.3222 56.0915 45.2122 59.4517 46.4489 65.4951C47.2189 69.2517 49.9955 69.4148 50.1122 65.5882C50.2755 60.1982 51.5122 57.1882 54.3122 55.4148C56.0855 54.2715 56.1322 53.9215 54.6622 52.7315ZM51.8622 53.9684C51.0455 54.2484 48.8289 56.1848 48.3155 57.0248C47.6155 58.2148 47.6389 58.2148 46.8222 56.9082C46.1222 55.7882 44.4655 54.5515 43.3689 54.3415C42.5289 54.1548 42.5522 54.1084 43.9055 52.7784C44.5589 52.1484 45.4689 50.8648 45.9355 49.9315C46.9855 47.9015 46.8455 47.9251 47.8489 49.5351C48.6189 50.7484 49.8789 52.0782 51.4655 53.3382C51.9089 53.6415 52.0489 53.8984 51.8622 53.9684Z" fill="#FF6F40"/>
</svg>
