<svg width="60" height="60" viewBox="0 0 60 60" fill="none" xmlns="http://www.w3.org/2000/svg">
<path fill-rule="evenodd" clip-rule="evenodd" d="M47.1019 2.01953C42.176 3.53721 15.0438 9.76772 3.75436 14.7202C-0.559053 16.6106 0.266352 16.6372 2.02368 21.0039C3.86088 25.6102 4.34014 26.4623 6.15072 28.5125C12.2215 35.382 18.2392 35.3285 18.8516 35.5415C17.7866 36.0207 16.1887 36.8461 12.8072 38.2041C9.8251 39.4023 9.90499 39.2694 10.8369 42.3048C14.2983 53.4078 26.5463 61.1291 37.5961 57.9074C38.6878 57.5879 37.889 55.1651 33.975 55.8042C27.9841 56.7893 21.1414 53.9403 16.8547 48.695C15.7896 47.3903 12.3549 40.6004 12.6211 40.3342C14.8311 38.2307 54.9299 26.7285 55.0631 26.9149C56.3944 28.406 56.2077 36.3405 54.7699 40.7871C53.1723 45.7129 46.6758 52.3162 41.111 54.606C39.0874 55.4314 39.9924 57.0822 42.4953 57.0822C46.0632 57.0822 54.6102 49.8133 57.2728 44.568C59.3496 40.4409 60.0419 33.385 58.7372 29.6574C56.5805 23.4801 56.5272 23.4535 50.8559 25.2641C46.8886 26.5421 46.6223 26.5688 47.5276 25.6102C51.9476 20.9507 54.3175 10.2736 53.0661 4.76202C52.1342 0.421965 49.9508 1.14087 47.1019 2.01953ZM50.1639 7.10511C50.1639 15.4923 46.5424 26.9415 37.9689 29.2314C23.4044 33.1188 21.6471 35.0625 14.3782 30.6692C10.1712 28.1131 4.63329 20.8175 4.63329 17.7555C4.60666 15.732 41.0045 6.57233 47.235 4.78838C50.3769 3.8831 50.1639 3.7236 50.1639 7.10511Z" fill="#FF6F40"/>
</svg>
