<svg width="60" height="60" viewBox="0 0 60 60" fill="none" xmlns="http://www.w3.org/2000/svg">
<path d="M9.22764 42.018C-3.82152 25.1539 -1.87077 9.07021 13.7362 5.12527C18.505 3.91152 24.6178 5.29867 27.9991 8.33352L29.7333 9.89406L32.2911 8.37663C47.0742 -0.553908 65.2821 15.92 57.5653 31.2233C50.5421 45.1394 27.6957 60.0959 23.0138 53.8532C21.6264 51.9893 22.3199 51.729 26.0049 52.6394C29.5165 53.5064 45.7302 39.1135 49.762 31.527C54.6173 22.4227 53.6638 17.4806 45.9036 11.2381C42.6957 8.6803 37.7101 9.80721 33.8082 14.0558C30.7303 17.3506 27.5223 17.6108 24.8777 13.4491C17.3781 1.74394 5.06559 11.0213 8.57719 25.7175C10.0512 31.7869 11.6554 34.8218 17.768 42.885C21.93 48.3474 22.0597 48.6076 20.6725 49.3446C18.0279 50.7752 13.9096 48.1309 9.22764 42.018Z" fill="#FF6F40"/>
<path d="M41.4391 16.9609C39.3147 16.5707 41.092 14.1863 43.0862 14.8799C44.7336 15.4869 47.0315 16.4842 47.9419 19.0416C48.9391 21.7294 46.9446 24.3306 45.8174 24.0272C44.8205 23.767 44.5171 22.6398 44.6471 20.3422C44.777 18.0444 43.5633 17.3508 41.4391 16.9609Z" fill="#FF6F40"/>
<path d="M46.2944 30.7027C43.4763 31.3532 41.3522 29.2287 42.6093 27.7982C43.5632 26.7578 47.1613 26.6709 48.2017 27.7116C49.0686 28.622 48.5054 30.1825 46.2944 30.7027Z" fill="#FF6F40"/>
</svg>
