<svg width="60" height="60" viewBox="0 0 60 60" fill="none" xmlns="http://www.w3.org/2000/svg">
<path fill-rule="evenodd" clip-rule="evenodd" d="M27.3086 1.41909C26.9144 1.65099 25.3606 2.99602 23.8532 4.36425C20.0269 7.86597 19.5863 8.21382 18.9601 8.79358C12.4437 9.11824 10.7971 8.72401 11.9567 14.5447C12.1422 15.4492 12.0958 15.5419 10.2174 18.0001C5.74168 23.8672 5.9504 23.3338 7.365 25.1659C7.66647 25.5833 12.3509 32.1461 12.3509 32.1461C12.119 34.3956 12.1886 34.6043 11.2146 35.5319C10.1942 36.4827 8.24623 38.7785 6.78525 40.7497C6.22867 41.515 5.57936 42.3498 5.34746 42.6049C4.32708 43.7644 1.54425 48.5648 1.05726 49.9794C-0.357345 54.0377 1.47468 54.2464 7.10991 50.6287L8.96513 49.446C9.54489 57.3771 9.4985 58.2815 11.0291 58.2815C11.4697 58.2815 14.4148 54.4319 16.2932 51.3708C18.3804 48.0083 22.7635 42.2339 23.065 42.4426C24.9202 43.5557 25.894 44.5065 29.1406 45.7588C29.5117 45.8979 29.9291 45.8747 30.2769 45.7124C30.8335 45.4341 31.715 44.9703 33.7325 43.6253C35.7501 42.2803 35.7962 42.2571 36.26 42.6745C37.35 43.6717 43.3794 52.7854 44.794 55.5915C46.6492 59.2787 47.7394 59.9744 48.6902 57.0061C49.3627 54.8726 49.9191 51.023 50.2437 48.7735C50.2437 48.7735 55.763 52.4608 56.25 52.8086C57.224 53.5043 58.0356 53.5043 59.1024 52.8318C61.0504 51.6027 53.0034 38.1756 48.0638 34.442C46.9971 33.6303 46.4869 33.0969 46.5797 32.9114C46.6724 32.7491 48.3189 30.9402 50.2205 28.8763C55.276 23.4498 55.3226 24.3078 49.5019 18.4871C46.8118 15.797 46.3246 14.9622 46.0927 14.4984C45.9767 14.2665 46.0231 12.6663 45.8144 10.9966C45.3274 7.3326 45.5593 7.51812 41.5242 7.75002C39.0197 7.88916 38.5561 7.86597 38.1387 7.54131C30.9497 2.04522 28.9783 0.421903 27.3086 1.41909ZM31.3205 5.01357C35.0541 7.91235 36.9093 9.09505 37.721 9.14143C38.6022 9.18781 42.3593 9.07186 43.3565 9.04867L43.6113 13.4084C43.6345 13.965 43.8664 14.4752 44.2143 14.8926C48.8987 20.1568 48.9915 20.4119 51.2873 23.6817C46.9275 28.8995 45.6984 31.1258 44.6781 32.2157C44.0056 32.9346 44.0983 33.0042 44.1911 37.735C38.4863 38.222 38.6254 38.106 36.8166 39.1032C32.0394 41.7469 29.6044 44.1123 29.6044 44.1123L27.5405 42.9992C25.7548 42.0252 21.627 39.4974 20.5834 38.593C20.4443 38.5003 19.8648 37.7814 18.7748 37.8277L14.438 38.0364L14.3221 32.865C14.2757 31.3577 13.4177 30.3605 8.84918 24.6093C13.3945 17.5595 12.5364 18.5799 14.2061 15.6115C14.6235 14.8462 14.554 12.5272 14.554 10.8343C14.554 10.5328 14.7859 10.2777 15.0873 10.2546C19.8645 9.92989 20.3515 9.97627 22.4155 8.32977C25.1055 6.14989 27.8652 3.69172 28.0043 3.36706C28.2362 2.78731 28.8391 3.08878 31.3205 5.01357ZM35.1469 10.7647C32.8974 9.60523 28.4449 9.09505 25.9172 9.6748C8.31579 13.6867 11.632 39.6134 29.7436 39.567C44.0983 39.5206 51.2409 19.7626 39.4835 12.62C37.2108 11.2517 36.3064 12.4344 38.5095 13.9186C51.009 22.3135 37.5587 43.4398 23.946 36.7842C9.45211 29.7112 16.8034 8.95591 33.0134 11.7619C34.8918 12.1098 36.376 11.3909 35.1469 10.7647ZM25.7085 14.8462C21.3023 15.9594 18.6354 26.0471 20.8153 26.0471C21.2328 26.0471 21.4183 25.5369 21.4183 24.331C21.4183 21.4554 24.7113 16.2144 26.9839 15.4956C28.0971 15.1477 26.9144 14.5447 25.7085 14.8462ZM29.3725 17.8146C28.6536 18.3248 27.2393 20.6438 25.7319 22.383C25.5 22.6613 25.5229 23.0788 25.8244 23.3107C26.1259 23.5658 27.0999 23.4266 27.726 22.8701C28.6304 22.0584 28.6768 22.0352 28.5609 22.5918C28.3521 23.4498 27.9347 26.0703 27.8652 26.9979C27.7956 27.8096 27.7956 27.8096 26.265 28.0647C22.0676 28.7604 24.5953 30.662 26.0563 30.9866C27.3782 31.2881 29.3957 31.2649 32.2017 30.9634C34.6367 30.7083 33.7093 27.9255 31.1816 27.9255C30.0453 27.9255 30.0914 28.1342 30.6712 24.2151C31.4828 18.8581 31.506 18.2784 30.8799 17.8609C30.2305 17.374 29.9986 17.374 29.3725 17.8146ZM39.2747 23.1251C39.2747 26.0703 37.6978 29.3633 35.3788 31.2649C33.3148 32.9578 33.1525 33.839 34.9845 33.6303C38.0688 33.2825 42.1735 24.1687 40.156 22.128C39.5298 21.5482 39.2747 21.8497 39.2747 23.1251ZM50.9162 41.2831C53.2816 44.5993 55.8326 48.8663 55.6934 49.2373C55.647 49.3301 54.279 48.7503 52.6325 47.9387C48.5279 45.8979 48.1798 46.0139 47.8319 49.4229C47.2522 55.1045 47.2522 55.1045 44.8172 51.0462C41.7561 45.8979 40.9215 45.1327 37.327 41.3526C38.4169 40.1931 38.5559 39.7525 42.7301 39.7989C45.9999 39.8453 45.8376 39.9381 46.2086 37.619L46.5101 35.7174C47.3913 36.645 48.1102 37.3176 50.9162 41.2831ZM12.4205 38.4307C12.5364 40.0076 13.6032 40.425 17.2904 40.3787C21.3719 40.3323 21.3951 40.3555 19.1456 43.0455C14.6003 48.4721 13.1858 51.394 11.516 54.5479C10.9131 47.3125 11.0986 47.243 9.63764 47.2893C8.8028 47.3125 6.04316 48.8431 4.88364 49.5852C3.86328 50.2577 3.86328 49.5156 4.02561 49.0982C4.60536 47.5444 11.9103 37.0857 12.1886 37.3407C12.2581 37.4335 12.3741 37.9437 12.4205 38.4307Z" fill="#FF6F40"/>
</svg>
