<svg width="60" height="60" viewBox="0 0 60 60" fill="none" xmlns="http://www.w3.org/2000/svg">
<path d="M36.3363 27.3343C37.3056 27.3343 37.9648 26.8691 38.624 25.6284C40.9892 21.2079 42.9279 20.8978 43.9747 24.6976C45.0218 28.4199 48.9769 28.8078 48.9769 25.2017C48.9769 21.2079 42.6951 17.9508 38.1973 19.5794C34.8628 20.8201 33.3119 27.3343 36.3363 27.3343Z" fill="#FF6F40"/>
<path d="M15.553 28.5362C15.553 25.0851 17.9182 23.6893 19.0426 26.4424C20.3222 29.5056 22.5711 30.3975 23.4239 28.1483C25.014 24.0384 16.4836 20.0058 12.6446 23.0301C11.1326 24.2323 9.77535 27.7608 10.3183 29.1565C10.9775 30.9013 15.5527 30.3198 15.5527 28.5362H15.553Z" fill="#FF6F40"/>
<path d="M18.229 48.0004C28.6205 52.6148 39.1673 51.2187 46.108 44.3169C53.3977 37.066 50.6061 29.5047 41.1838 30.9396C40.2921 31.0559 37.6553 32.0252 35.3675 33.072C30.7146 35.1661 27.845 35.3209 21.4085 33.77C10.8228 31.2883 8.10861 43.5415 18.229 48.0004ZM45.0612 33.9251C46.8449 36.1741 46.0306 40.013 43.2776 42.6109C41.4551 44.3169 41.649 44.472 40.4083 40.2066C39.8654 38.3067 39.245 36.368 39.0122 35.8639C38.3145 34.0802 43.8206 32.3354 45.0612 33.9251ZM33.4288 36.6008C35.7166 35.9801 35.7166 35.9416 36.7636 40.9435C37.9266 46.4496 37.9266 46.527 35.949 47.225C32.1104 48.5823 32.5368 48.5046 31.6063 37.066L33.4288 36.6008ZM24.1615 37.0272H28.4654C28.4654 45.1312 28.5819 45.0149 29.1634 47.9616L27.0696 47.574C23.8513 46.9922 24.1615 46.7597 24.1615 37.0272ZM19.7411 35.7476C21.0983 36.0967 21.6798 45.6741 20.3614 45.6741C19.1207 45.6741 16.2514 42.1454 15.8636 40.0904C15.2432 36.717 16.7941 34.9722 19.7411 35.7476Z" fill="#FF6F40"/>
<path d="M43.4703 5.27073C37.3827 2.20753 37.2276 3.37084 42.9661 8.95426C60.9193 26.3644 56.0721 52.5763 34.552 54.7089C17.8399 56.3764 5.93613 46.062 6.24631 30.5521C6.47877 18.2216 14.5828 5.30958 27.9215 3.75838C30.5968 3.44821 30.6745 3.37084 29.4723 2.71164C27.6113 1.66456 22.183 1.8585 18.887 3.02181C14.5831 4.57267 10.2012 7.7521 6.78895 11.8624C-1.78031 22.099 -0.849452 38.1908 5.89728 47.7294C14.3114 59.6335 42.5009 61.6885 52.3885 51.1028C64.7964 37.8418 60.0661 13.646 43.4703 5.27073Z" fill="#FF6F40"/>
</svg>
