<svg width="74" height="74" viewBox="0 0 74 74" fill="none" xmlns="http://www.w3.org/2000/svg">
<path d="M49.4053 20.5849C49.0934 21.0717 48.8117 21.5791 48.508 22.0714L45.8183 26.4648C45.4094 27.1395 43.7742 29.4812 43.9426 30.1806C44.053 30.6392 44.6142 30.9924 45.0737 30.8637C45.7955 30.6616 46.565 28.8681 46.9475 28.2648C48.3955 25.9808 49.7908 23.6635 51.2119 21.3632C52.1943 19.7729 51.7471 19.6003 53.5477 19.3142C55.6901 18.9736 57.8056 18.8885 59.9616 19.1537C61.419 19.3331 61.2496 19.3814 61.6397 20.8404C62.9696 25.8139 62.3449 31.8238 59.7641 36.2617C56.7735 41.4046 51.2494 45.2066 45.1649 44.8366C42.7839 44.6918 42.5961 43.4279 41.0994 45.9715C40.4052 47.1513 39.5893 49.009 38.7902 50.0399C38.4547 48.3258 38.9128 46.6473 37.7979 44.846C39.6489 41.0663 39.4964 43.687 38.3992 39.3602C36.857 33.2778 40.1137 26.926 44.9037 23.2419C46.2847 22.1798 47.8341 21.3285 49.4053 20.5849ZM54.5025 19.9943C53.6139 20.1274 52.947 21.6577 52.5152 22.3668L48.2885 29.2459C47.8968 29.8964 45.9471 32.4256 48.0288 32.4775C48.9935 32.2903 49.9655 30.1449 50.4792 29.3057L54.2819 23.169C54.6755 22.5295 55.1075 21.8991 55.4349 21.2228C55.7158 20.6423 55.0568 20.0091 54.5025 19.9943Z" fill="#FF6F40"/>
<path d="M16.0002 10.0822C23.4612 10.9124 30.0855 14.6119 34.0663 21.1342C38.2966 28.0652 37.5955 34.5982 35.8047 42.0071C36.5388 42.4826 37.4648 44.0349 37.7981 44.846C38.913 46.6473 38.455 48.3257 38.7905 50.0399C38.7181 50.4363 38.7886 51.6118 38.7903 52.0724C38.8006 54.8025 38.7197 57.5366 38.8607 60.2642C38.8791 60.6197 38.9243 60.9868 38.9125 61.3424C38.8333 63.7271 35.2065 64.2093 34.5707 61.8588C34.3445 61.0227 34.5564 60.0419 34.5482 59.1848L34.547 52.3287C34.547 49.2519 34.7851 48.1815 33.4993 45.3734C33.246 45.3354 32.9182 45.375 32.6569 45.373C20.7281 45.2838 11.4041 35.8392 11.6199 23.8612C11.7047 19.1531 13.272 13.9408 16.0002 10.0822Z" fill="#5A9A5B"/>
</svg>
