<svg width="60" height="60" viewBox="0 0 60 60" fill="none" xmlns="http://www.w3.org/2000/svg">
<path d="M58.8711 31.429C56.3345 15.7869 45.4578 4.29556 35.7729 7.02412C33.7358 7.60066 32.1216 8.94603 25.6266 15.6717C22.2444 19.1691 21.2068 20.0144 20.6303 19.8224C14.3273 17.3627 10.3688 20.4374 10.4072 27.8164C10.4072 31.7364 10.5995 32.7743 11.8678 36.7328C12.2137 37.7704 7.83227 41.8443 2.33646 47.6476C-2.0836 51.6831 2.56686 52.913 9.21575 50.7607C20.6687 47.0713 18.9007 47.2249 22.8594 49.454C29.3544 53.1052 37.81 54.4503 41.6532 52.4519C42.4218 52.0674 42.8444 51.2604 42.7676 50.3764C42.7676 50.338 42.4218 46.5716 42.4218 46.61C47.6872 44.4961 54.0286 42.3441 57.0262 40.1917C60.0241 38.0011 59.6012 35.8872 58.8711 31.429ZM9.17735 47.1865C8.75468 47.1865 13.7894 41.6523 14.135 41.2678C14.2121 41.7291 15.2881 43.4585 16.8257 44.4961C16.8638 44.6883 9.86909 47.1865 9.17735 47.1865ZM48.1098 38.7696C45.9576 39.2693 39.1935 41.9598 36.8105 43.3049C35.0811 44.2657 35.0041 44.3809 35.2347 45.6108C36.0804 50.2996 36.311 50.0305 32.2371 48.9929C23.0133 46.61 12.3288 28.5081 16.5564 22.3974C17.7479 20.6678 19.4004 22.8585 19.5159 26.3558C19.6311 30.0455 22.8978 36.1178 25.2037 37.6168C26.549 38.5008 27.2408 37.4245 26.8949 36.7328C22.4367 28.5081 23.1669 26.3174 23.4743 25.0875C23.4743 25.0875 33.2747 15.1722 34.0819 14.2879C37.0412 11.1364 39.6545 10.9828 42.537 13.7501C47.8408 18.9 51.9147 27.0863 52.9523 34.5805C53.183 36.5792 51.5688 38.0011 48.1098 38.7696Z" fill="#FF6F40"/>
<path d="M48.3789 32.928C43.9594 35.2723 35.1579 18.9769 39.2319 16.0177C41.0767 14.6723 38.2326 13.0198 36.6953 14.7491C34.1203 17.6702 36.6185 33.6582 47.2261 35.503C49.1477 35.8489 50.7235 35.503 50.8771 34.1963C51.0309 33.0819 49.5704 32.2747 48.3789 32.928Z" fill="#FF6F40"/>
</svg>
