<svg width="74" height="75" viewBox="0 0 74 75" fill="none" xmlns="http://www.w3.org/2000/svg">
<path d="M57.5696 40.9888L59.6454 40.9405C82.3826 40.5543 74.8035 7.14859 50.4733 15.9828C32.5153 22.4998 35.8463 52.4781 55.0594 57.402C63.5556 59.5744 73.0174 58.0296 65.9694 55.6159C59.9351 53.5884 55.0594 47.7472 55.3973 42.968C55.4939 41.906 56.4111 40.9888 57.5696 40.9888Z" fill="#FF6F40"/>
<path d="M13.2066 14.7759C-8.66165 23.1756 0.220811 59.864 24.5027 61.4571C30.8266 61.8915 32.468 60.395 27.6888 58.6089C23.0545 56.871 17.2133 48.6644 16.5858 43.1129C16.4409 42.0026 17.3099 41.0854 18.4202 41.0854C24.7924 41.0854 27.4474 41.0854 31.1646 35.9683C40.2884 23.3205 28.1716 9.03132 13.2066 14.7759Z" fill="#FF6F40"/>
</svg>
